<svg xmlns="http://www.w3.org/2000/svg" width="9" height="9"><path d="M2 0h2v1h1v1h1v1h1v3h2v2H8v1H6V7H3V6H2V5H1V4H0V2h1V1h1V0"/><path d="M2 1h2v1h1v1h1v3H3V5H2V4H1V2h1z"/><path d="M6 6v1h1V6H6" fill="#e2d5aa"/><path d="M3 1h1v1h1v1h1v3H4V5H3V3H2V2h1z" fill="#9d6d43"/><path d="M7 7h1v1H7z" fill="#fff7dc"/><path d="M4 5h2v1H4zM3 4h1v1H3z" fill="#7b512d"/><path d="M3 3h1v1H3zM4 2h1v1H4zM5 3h1v1H5z" fill="#b88458"/><path d="M2 2h1v1H2z" fill="#dfb18f"/><path d="M3 2h1v1H3z" fill="#d42a2a"/><path d="M3 1h1v1H3z" fill="#b21818"/><path d="M2 1h1v1H2v1h1v2h1v1H3V5H2V4H1V2h1z" fill="#282828"/></svg>